<svg xmlns="http://www.w3.org/2000/svg" width="536" height="512" viewBox="0 0 536 512"><title>nteract_logo_compact_clear_space_red_inverted</title><polygon points="355.6 336.32 267.6 285.51 267.6 119.24 355.6 170.05 355.6 336.32" fill="#a3b7d6"/><polygon points="267.6 119.24 179.6 170.05 179.6 336.32 267.6 285.51 267.6 119.24" fill="#c8d4e6"/><polygon points="267.6 63.81 131.6 142.33 155.6 156.19 267.6 91.53 379.6 156.19 379.6 322.46 403.6 308.61 403.6 142.33 267.6 63.81" fill="#5d779b"/><polygon points="155.6 156.19 131.6 142.33 131.6 308.61 155.6 322.46 155.6 156.19" fill="#334866"/><polygon points="155.6 156.19 155.6 322.46 179.6 336.32 179.6 170.05 155.6 156.19" fill="#a3b7d6"/><polygon points="155.6 156.19 267.6 91.53 379.6 156.19 379.6 322.46 355.6 336.32 355.6 170.05 267.6 119.24 179.6 170.05 155.6 156.19" fill="#edf1f7"/><polygon points="267.61 156.18 323.6 188.52 323.6 253.18 267.6 285.51 211.6 253.18 211.6 188.52 267.61 156.18" fill="#ffb3cc"/><polygon points="267.6 285.51 267.61 220.85 211.6 188.52 211.6 253.18 267.6 285.51" fill="#f21860"/><polygon points="267.61 220.85 323.6 188.52 323.6 253.18 267.6 285.51 267.61 220.85" fill="#fa8aae"/><path d="M74.25,392.91A33,33,0,0,0,64,416.41v24.9c0,4.35,4.3,7.27,8.32,7.27s8.17-2.92,8.17-7.27V421.65c0-21.2,11.18-23.48,16-23.48,11.9,0,16.14,12.29,16.14,23.78v19.35c0,4.35,4.15,7.27,8,7.27s8.32-2.78,8.32-7.27V417.45c0-16.27-12.24-33.82-32-33.82A33.19,33.19,0,0,0,74.25,392.91Z" fill="#f21860"/><path d="M164.37,383.63h-7.29V369.21c0-4.5-4.84-7.27-8.32-7.27-3.94,0-8.17,2.92-8.17,7.27v57.54c0,10.23,4.44,17.88,12.17,21a8.87,8.87,0,0,0,4.1.85,7.79,7.79,0,0,0,6.92-3.42,6,6,0,0,0,1.25-3.7c0-2.4-1.36-5.41-3.88-6.25-4.07-1.19-4.07-7-4.07-10.4V398.17h7.29c3.47,0,8.32-2.77,8.32-7.27S167.84,383.63,164.37,383.63Z" fill="#edf1f7"/><path d="M241.4,402.13c-3.51-7.77-10.29-13.66-19.09-16.58a35,35,0,0,0-25.19,1,38.45,38.45,0,0,0-18.36,17.32c-3,6.06-5.55,15.78-.19,27.64a31.31,31.31,0,0,0,3.3,5.64h0a35,35,0,0,0,24.19,12.67,37.55,37.55,0,0,0,31.24-13.55,6.78,6.78,0,0,0,1.22-3.69,7,7,0,0,0-2-5.46,8.19,8.19,0,0,0-5.16-2.48c-3.68-.3-6.11,1.87-8.92,4.39-3.15,2.95-7.43,7-15.06,6.33a18,18,0,0,1-10.64-4.44l-.75-.7,41.82-18.9a7,7,0,0,0,3.61-9.11Zm-49.92,15.81,0-1A17.63,17.63,0,0,1,202.23,400c5.46-2.47,14-2.57,20,3l.74.7Z" fill="#edf1f7"/><path d="M288.72,383.33a36.76,36.76,0,0,0-22.82,8.1A32.75,32.75,0,0,0,253.7,417v24.3c0,4.35,4.3,7.27,8.32,7.27s8.17-2.92,8.17-7.27v-20c0-5.41,0-9.31,1.87-13.06a20,20,0,0,1,6.51-7.45l0,0a19.56,19.56,0,0,1,10.12-3c3.93,0,8.17-2.78,8.17-7.27S292.65,383.33,288.72,383.33Z" fill="#edf1f7"/><path d="M372.49,436.09l-.29-.27c-1.67-1.34-3.32-2.91-3.8-5.15l-.48-2.27.38.38c-.06-.92-.06-1.82-.06-2.6V415.83c0-18.4-18.08-32.15-34.24-32.15a38.8,38.8,0,0,0-24.08,8.3c-5.32,4.31-11.66,12.21-11.66,25.35A31.27,31.27,0,0,0,308.6,440.6a36.27,36.27,0,0,0,46.56,1.67l.59-.46.41.63a17.86,17.86,0,0,0,7.14,6.18v-.17l1,.49a8.92,8.92,0,0,0,3.89,1c3.42,0,8.16-2.52,8.16-7.26C376.33,439.66,374.55,438,372.49,436.09Zm-39.39-.69a18.62,18.62,0,0,1-18.52-18.67c0-7.69,5.75-18.52,18.52-18.52,7.16,0,18.52,5,18.52,18.52A18.62,18.62,0,0,1,333.1,435.4Z" fill="#edf1f7"/><path d="M437.22,429.67l0,0a9.63,9.63,0,0,0-5.73-2.1,8.08,8.08,0,0,0-5.7,2.37c-.37.37-1,.86-1.61,1.37-.41.34-.85.69-1.26,1l0,0a18.93,18.93,0,0,1-20.46.09,18.82,18.82,0,0,1,10.43-34.31A18.37,18.37,0,0,1,423,401.21l.11.09a11.92,11.92,0,0,0,2.4,1.75l.3.2a7.21,7.21,0,0,0,5.37,2.05,8.87,8.87,0,0,0,5.85-2.08,6.78,6.78,0,0,0,2.48-5.2c0-1.76-.8-3.37-2.5-5.08a35.92,35.92,0,0,0-24.31-9.26,37,37,0,0,0-23.89,8.85,32.1,32.1,0,0,0-11,24.42c0,15.59,14.28,33,34.77,33a38.34,38.34,0,0,0,16.82-4,36,36,0,0,0,7.94-5.73,6.92,6.92,0,0,0,2.65-5.38A6.37,6.37,0,0,0,437.22,429.67Z" fill="#edf1f7"/><path d="M470.56,398.17c3.47,0,8.32-2.77,8.32-7.27s-4.84-7.27-8.32-7.27h-7.28V369.21c0-4.5-4.85-7.27-8.32-7.27-3.94,0-8.17,2.92-8.17,7.27v57.54c0,10.23,4.44,17.88,12.17,21a8.87,8.87,0,0,0,4.1.85,7.79,7.79,0,0,0,6.92-3.42,6,6,0,0,0,1.25-3.7c0-2.4-1.36-5.41-3.88-6.25-4.07-1.19-4.07-7-4.07-10.4V398.17Z" fill="#edf1f7"/></svg>